<svg xmlns="http://www.w3.org/2000/svg" viewBox="0 0 100 100">
  <defs>
    <radialGradient id="b" cx="35%" cy="35%" r="60%">
      <stop offset="0" stop-color="#ffe2a0"/>
      <stop offset=".6" stop-color="#e8943a"/>
      <stop offset="1" stop-color="#a35515"/>
    </radialGradient>
    <radialGradient id="bg" cx="50%" cy="50%" r="60%">
      <stop offset="0" stop-color="#0e6b8a"/>
      <stop offset="1" stop-color="#021522"/>
    </radialGradient>
  </defs>
  <rect width="100" height="100" rx="22" fill="url(#bg)"/>
  <g transform="translate(50 52)" stroke="#7a2f0a" stroke-width="3" stroke-linecap="round">
    <line x1="0" y1="-26" x2="0" y2="-36"/>
    <line x1="18" y1="-18" x2="26" y2="-26"/>
    <line x1="26" y1="0" x2="36" y2="0"/>
    <line x1="18" y1="18" x2="26" y2="26"/>
    <line x1="0" y1="26" x2="0" y2="36"/>
    <line x1="-18" y1="18" x2="-26" y2="26"/>
    <line x1="-26" y1="0" x2="-36" y2="0"/>
    <line x1="-18" y1="-18" x2="-26" y2="-26"/>
  </g>
  <polygon points="30,52 16,40 16,64" fill="#b65a14"/>
  <circle cx="50" cy="52" r="22" fill="url(#b)"/>
  <ellipse cx="49" cy="60" rx="12" ry="4" fill="#fff0c8" opacity=".55"/>
  <circle cx="60" cy="46" r="4" fill="#fff"/>
  <circle cx="61" cy="46" r="2" fill="#1a1a1f"/>
</svg>
